<?xml version="1.0" encoding="UTF-8" standalone="no"?> <svg height="637pt" viewBox="-20 -46 637.33668 637" width="637pt" xmlns="http://www.w3.org/2000/svg"><path d="m181.253906 181.210938h235c6.210938 0 11.25-5.039063 11.25-11.25 0-6.214844-5.039062-11.25-11.25-11.25h-235c-6.210937 0-11.25 5.035156-11.25 11.25 0 6.210937 5.039063 11.25 11.25 11.25zm0 0"/><path d="m181.253906 256.210938h235c6.210938 0 11.25-5.039063 11.25-11.25 0-6.214844-5.039062-11.25-11.25-11.25h-235c-6.210937 0-11.25 5.035156-11.25 11.25 0 6.210937 5.039063 11.25 11.25 11.25zm0 0"/><path d="m416.253906 318.710938c6.210938 0 11.25-5.039063 11.25-11.25 0-6.214844-5.039062-11.25-11.25-11.25h-235c-6.210937 0-11.25 5.035156-11.25 11.25 0 6.210937 5.039063 11.25 11.25 11.25zm0 0"/><path d="m597.503906 416.066406c.003906-22.003906-16.789062-40.371094-38.707031-42.339844-21.914063-1.964843-41.707031 13.125-45.613281 34.78125-3.914063 21.652344 9.347656 42.707032 30.570312 48.535157v64.167969h-46.25v-426.25c0-6.214844-5.039062-11.25-11.25-11.25h-63.75v-74.042969c0-6.210938-5.039062-11.25-11.25-11.25h-225c-6.210937 0-11.25 5.039062-11.25 11.25v74.042969h-63.75c-6.210937 0-11.25 5.035156-11.25 11.25v426.25h-46.25v-64.167969c20.515625-5.632813 33.710938-25.574219 30.867188-46.660157-2.839844-21.089843-20.839844-36.824218-42.117188-36.824218-21.28125 0-39.277344 15.734375-42.121094 36.824218-2.839843 21.085938 10.351563 41.027344 30.871094 46.660157v64.167969h-20c-6.210937 0-11.24999975 5.035156-11.24999975 11.25 0 6.210937 5.03906275 11.25 11.24999975 11.25h575c6.210938 0 11.25-5.039063 11.25-11.25 0-6.214844-5.039062-11.25-11.25-11.25h-20v-64.167969c18.441406-5.085938 31.226563-21.847657 31.25-40.976563zm-575 0c0-11.046875 8.953125-20 20-20 11.042969 0 20 8.953125 20 20 0 11.042969-8.957031 20-20 20-11.039062-.015625-19.984375-8.960937-20-20zm175-395.148437h202.5v62.792969h-202.5zm-75 85.292969h352.5v415h-65v-31c0-6.210938-5.039062-11.25-11.25-11.25h-20v-107.085938c0-6.214844-5.039062-11.25-11.25-11.25h-137.5c-6.210937 0-11.25 5.035156-11.25 11.25v107.085938h-20c-6.210937 0-11.25 5.035156-11.25 11.25v31h-65zm233.75 372.75h-46.25v-95.835938h46.25zm-68.75 0h-46.25v-95.835938h46.25zm100 22.5v19.75h-177.5v-19.75zm147.5-85.394532c0-11.046875 8.953125-20 20-20 11.042969 0 20 8.953125 20 20 0 11.042969-8.957031 20-20 20-11.039062-.015625-19.984375-8.960937-20-20zm0 0"/></svg>